<svg width="250" height="90" viewBox="0 0 250 90" fill="none" xmlns="http://www.w3.org/2000/svg">
<path d="M170.886 77.4661C170.986 75.854 170.622 74.4371 169.903 73.0956C169.168 71.7311 168.802 70.2568 169.354 68.6301L169.442 68.2601C169.767 66.7944 169.618 65.4409 168.737 64.3171C168.075 63.4716 167.894 62.501 168.087 61.3849C168.343 59.9184 168.258 58.5581 167.539 57.2432C166.916 56.1022 166.808 54.8421 167.304 53.4921C167.722 52.3588 167.995 51.1355 168.26 49.9294C168.466 48.9897 168.468 47.9943 168.179 47.0803C167.945 46.3342 168.006 45.6575 168.151 44.9233C168.306 44.149 168.392 43.3489 168.476 42.5574C168.541 41.9483 168.376 41.4087 168.006 40.9906C167.519 40.4424 167.35 39.7605 167.431 38.9827C167.529 38.091 167.669 37.2087 167.29 36.3504C167.222 36.2005 167.262 35.9709 167.272 35.779C167.366 34.2294 167.048 32.7877 166.553 31.3837C166.269 30.5751 166.149 29.7236 166.223 28.843C166.367 27.1349 166.279 25.4303 166.037 23.7564C165.776 21.9558 165.366 20.1912 165.057 18.4009C164.949 17.7815 164.879 17.1297 164.91 16.5026C164.974 15.2237 165.099 13.9465 165.239 12.6736C165.407 11.1394 165.713 9.65142 166.251 8.2363C166.768 6.86657 167.248 5.47458 167.726 4.08429C167.898 3.58232 168.045 3.06236 168.147 2.53297C168.273 1.8965 168.267 1.25405 167.953 0.674975C167.536 -0.0934073 166.986 -0.237321 166.44 0.406852C165.995 0.937952 165.574 1.54444 165.275 2.20746C164.689 3.51122 164.014 4.71904 163.2 5.82236C162.634 6.59074 162.392 7.50818 162.357 8.55496C162.293 10.5894 161.915 12.4954 160.716 14.0347C160.374 14.4742 160.074 14.9684 159.799 15.4747C159.521 15.9767 159.229 16.4966 159.071 17.0628C158.695 18.3949 158.286 19.738 158.094 21.1215C157.839 22.9641 157.446 24.7475 157.048 26.5464C156.717 28.0403 156.152 29.2679 155.3 30.3455C154.76 31.0282 154.382 31.8369 154.146 32.7303C153.864 33.8002 153.617 34.8821 153.381 35.9692C153.275 36.4643 153.201 36.9757 153.162 37.4837C152.981 39.9147 152.837 42.3509 152.637 44.776C152.588 45.3508 152.63 45.989 152.305 46.5115L152.166 46.3624C151.648 45.4861 151.586 44.4711 151.506 43.4354C151.321 41.0078 151.121 38.5861 151.201 36.1413C151.224 35.4029 151.201 34.6628 151.219 33.9244C151.235 33.3205 151.029 32.8716 150.657 32.511C150.515 32.3748 150.368 32.2489 150.204 32.099C150.234 31.6441 150.263 31.1978 150.292 30.7532C150.359 29.6679 150.238 28.6597 149.667 27.7491C149.463 27.427 149.374 26.9165 149.377 26.495C149.385 25.4063 149.468 24.3149 149.539 23.2279C149.593 22.3267 149.329 21.5943 148.817 20.975C148.686 20.82 148.516 20.6932 148.423 20.5107C148.276 20.2272 148.063 19.8991 148.078 19.6036C148.123 18.5508 148.198 17.4903 148.365 16.4589C148.496 15.646 148.797 14.8768 148.987 14.075C149.326 12.6256 149.683 11.1813 149.951 9.71053C150.088 8.95842 149.784 8.43332 149.268 8.14807C148.775 7.86967 148.363 7.93734 147.969 8.59865C147.289 9.73452 146.653 10.9175 146.077 12.1305C145.822 12.6693 145.718 13.3289 145.603 13.9508C145.414 14.9941 145.212 16.0315 144.577 16.8213C143.892 17.6762 143.517 18.7178 143.274 19.8546C143.235 20.0422 143.157 20.2186 143.066 20.491C142.639 19.1376 142.464 19.0048 141.537 19.2772C141.504 19.093 141.492 18.8994 141.434 18.7281C141.176 17.9631 140.686 17.8441 140.225 18.4557C140.031 18.7084 139.834 19.0005 139.739 19.32C139.382 20.5261 139.022 21.7348 138.741 22.9675C138.464 24.2044 138.323 25.4868 138.054 26.7254C137.457 29.452 137.019 32.2369 136.062 34.8333C135.945 35.1494 135.901 35.51 135.848 35.8552C135.571 37.7132 135.612 39.5618 135.932 41.4087C136.315 43.6059 136.277 45.8151 135.998 48.0243C135.82 49.4523 135.138 50.5547 134.403 51.6118C133.238 53.2813 132.73 55.2027 132.875 57.4025C132.944 58.4724 133.129 59.4901 133.48 60.4734C134.089 62.1713 134.314 63.911 133.763 65.7116C133.67 66.0115 133.603 66.3301 133.573 66.6453C133.49 67.4437 133.465 68.2258 133.76 69.0062C133.928 69.4525 134.002 69.9896 134.006 70.4881C134.017 72.4498 133.979 74.4097 133.976 76.3713C133.974 76.7174 134.027 77.0746 134.104 77.4104C134.212 77.897 134.442 78.2962 134.866 78.4169C135.324 78.5471 135.605 78.1796 135.843 77.783C136.267 77.0712 136.567 76.2848 136.64 75.4017C136.771 73.8126 137.195 72.3435 137.7 70.8873C137.928 70.2234 138.022 69.4628 138.062 68.7372C138.136 67.3152 137.882 65.9266 137.641 64.5415C137.582 64.2023 137.539 63.8322 137.587 63.4964C137.826 61.8449 138.339 60.3167 139.361 59.1902C140.203 58.2557 140.552 57.2012 140.407 55.8554C140.375 55.5351 140.395 55.2053 140.34 54.8926C140.167 53.9238 140.269 52.9901 140.446 52.035C140.686 50.7218 140.958 49.4009 141.047 48.0637C141.195 45.8442 141.504 43.6744 141.929 41.5192C142.225 40.0235 142.231 38.539 141.796 37.0614C141.375 35.6231 141.412 34.166 141.819 32.7106C142.022 31.9833 142.134 31.2201 142.33 30.4903C142.545 29.6808 142.695 28.8224 143.307 27.9992C143.356 28.4652 143.425 28.7668 143.414 29.0597C143.372 30.0226 143.317 30.9837 143.239 31.9379C143.141 33.1792 143.357 34.2422 144.252 34.9695C144.651 35.2899 144.855 35.7516 144.932 36.3195C145.011 36.8892 145.244 37.4263 145.642 37.6507C146.585 38.1861 146.743 39.1806 146.83 40.2599L146.854 40.5478C147.04 42.4691 147.314 44.3426 148.091 46.0832C148.405 46.7848 148.448 47.6765 148.586 48.4886C148.68 49.0188 148.641 49.6047 148.806 50.093C149.132 51.0653 149.078 52.0307 148.995 53.0312C148.825 55.1616 149.293 56.3925 150.829 56.766C151.209 56.8577 151.421 57.1421 151.457 57.6235C151.496 58.1015 151.547 58.5778 151.597 59.0558C151.729 60.3021 151.886 61.5442 152.519 62.5919C152.89 63.2035 153.362 63.5564 154.01 63.3722C154.545 63.2189 154.986 62.5499 155.045 61.7352C155.102 60.9986 155.15 60.2542 155.116 59.52C155.021 57.5181 155.5 55.7218 156.276 53.9957C156.497 53.5032 156.672 52.9353 156.734 52.3785C156.847 51.3642 156.886 50.3329 156.91 49.3066C156.956 47.4546 157.228 45.7226 158.44 44.4291L158.598 44.2141C159.687 42.3809 160.304 40.4004 159.922 38.0841C159.63 36.305 159.881 34.5712 160.267 32.8571C160.341 32.5213 160.454 32.1975 160.551 31.8677C160.683 32.2626 160.683 32.6155 160.683 32.9685C160.684 34.0581 160.956 34.9841 161.719 35.6342C161.91 35.797 162.071 36.0197 162.226 36.2381C162.604 36.7769 162.804 37.3843 162.639 38.1056C162.486 38.7866 162.332 39.465 162.163 40.1426C161.835 41.4601 161.356 42.7518 161.198 44.0984C160.975 46.0078 161.051 47.9506 161.657 49.7975C161.781 50.1787 161.905 50.5873 161.926 50.9925C161.966 51.9227 161.988 52.8599 161.94 53.7884C161.773 56.9168 162.468 59.6948 164.115 62.0984C164.542 62.7203 164.579 63.3739 164.421 64.162C164.203 65.2439 164.058 66.3567 163.99 67.4677C163.914 68.661 164.315 69.5955 165.282 70.053L165.416 70.2251C165.416 70.8316 165.421 71.4741 165.412 72.114C165.405 72.9654 165.634 73.7004 166.159 74.2581C166.571 74.6992 166.993 75.1455 167.46 75.4907C167.937 75.8454 168.08 76.2994 168.011 76.9436C167.945 77.5475 167.921 78.1574 167.888 78.7673C167.861 79.2795 167.965 79.7301 168.368 79.9888C168.741 80.2278 169.015 79.9503 169.294 79.7027L169.445 79.6916L169.545 79.8261C170.002 80.3914 170.297 80.4865 170.702 80.2038C171.104 79.9194 171.188 79.5065 171.041 78.7853C170.954 78.3544 170.859 77.8978 170.886 77.4661Z" fill="#11B0C8"/>
<path d="M45.9256 81.1754C45.7729 79.9847 45.3761 78.9105 44.6829 78.0162C43.8496 76.9334 43.3405 75.681 43.2624 74.1588C43.1725 72.4096 42.3559 71.2566 41.0638 70.6433C40.6391 70.4403 40.3371 70.1653 40.1349 69.6907C39.8929 69.1228 39.6168 68.5703 39.4152 67.9818C39.1593 67.2365 38.7123 66.7346 38.1119 66.5701C37.4111 66.3765 37.1015 65.8531 36.9474 65.0847C36.8895 64.8029 36.8121 64.5271 36.7772 64.241C36.5415 62.3984 35.7215 61.0475 34.4356 60.1164C34.0248 59.8174 33.8205 59.4011 33.6267 58.8846C33.2334 57.8395 32.8742 56.725 32.2934 55.8513C31.4663 54.6066 30.4245 53.6481 28.9545 54.3617L28.769 54.2983C28.5912 53.8408 28.4301 53.3303 28.2056 52.866C27.6561 51.7404 27.2969 51.6402 26.3758 52.2929L26.2495 52.3023C26.1694 52.0993 26.0843 51.8749 25.9929 51.6505C25.6777 50.8761 25.3953 50.076 25.0362 49.3325C24.7147 48.6643 24.3256 48.0587 23.5655 48.1024C23.3723 48.1135 23.1708 47.8916 22.8284 47.6946C23.2113 47.3683 23.4093 47.1515 23.6373 47.0136C24.3479 46.5776 24.8849 45.9454 25.1526 45.0254C25.2747 44.6108 25.5013 44.3812 25.8054 44.2656C26.1784 44.126 26.562 44.0009 26.9497 43.9589C27.9922 43.8433 28.684 43.0809 29.1909 42.0761C29.7139 41.0404 30.0995 39.9054 30.262 38.6813C30.345 38.0492 30.435 37.4735 30.9656 37.0889C31.2167 36.9073 31.3729 36.425 31.4649 36.0421C31.5779 35.5547 31.626 35.0279 31.6211 34.5216C31.6135 33.641 31.7927 32.9052 32.308 32.2499C33.2508 31.0583 33.5179 29.5858 33.2975 27.9694C33.1197 26.6639 33.0067 25.385 33.4021 24.0786C33.8721 22.5325 33.5723 21.1584 32.497 20.1168C32.1678 19.799 32.0458 19.4478 32.1023 18.9587C32.1365 18.6726 32.1602 18.383 32.1706 18.0935C32.2083 17.1024 32.255 16.1113 32.2599 15.1176C32.2599 14.8452 32.1818 14.5231 32.0486 14.3055C31.1142 12.7816 30.3624 12.3156 29.0438 12.881C28.7718 12.9975 28.4992 13.1268 28.2181 13.1799C27.7642 13.2716 27.6031 13.0917 27.5543 12.5298C27.5201 12.1152 27.5152 11.6937 27.4469 11.2868C27.3095 10.4336 26.9085 10.019 26.1952 9.97364C25.9357 9.95565 25.6694 9.97107 25.4148 10.0327C24.6269 10.2229 23.9491 10.0619 23.3089 9.39372C22.8591 8.92001 22.304 8.59021 21.7713 8.24928C20.8452 7.65479 19.8919 7.1254 18.9722 6.51806C18.4045 6.13859 17.8153 5.93899 17.1765 5.90987C16.8641 5.89445 16.5427 5.94841 16.2365 5.88074C15.2219 5.65631 14.4025 6.11117 13.625 6.85728C12.7589 7.68734 11.8768 8.49599 10.9709 9.2618C9.78128 10.2683 8.49401 10.7729 7.04355 10.2032L6.73742 10.127C6.14748 9.89826 5.6147 10.0867 5.07357 10.3968C4.2012 10.8988 3.47528 11.6158 2.85535 12.5041C2.49134 13.0275 2.12175 13.2271 1.5597 12.911C1.06041 12.6326 0.771724 12.7482 0.533933 13.2296C-0.0336979 14.3826 -0.401194 16.286 0.777302 17.6592C0.967675 17.8802 1.15804 18.1003 1.35957 18.3051C2.17615 19.1351 2.28633 20.1785 1.98508 21.3572C1.85398 21.8771 1.70894 22.3988 1.63084 22.9316C1.31355 25.1263 1.45301 27.1676 2.97669 28.7343C3.29468 29.0599 3.56664 29.4693 3.82116 29.8753C4.27652 30.6026 4.62031 31.3753 4.4132 32.363C4.257 33.1065 4.19005 33.8774 4.03663 34.6193C3.90693 35.2463 3.90693 35.8117 4.20818 36.3719C4.31627 36.5706 4.39228 36.8568 4.37345 37.0872C4.32394 37.6894 4.42855 38.2316 4.63914 38.7644C4.86577 39.3341 4.8839 39.8994 4.73746 40.5325C4.49688 41.5647 4.58964 42.5686 5.18098 43.4373C5.43341 43.8073 5.66214 44.1988 5.91457 44.5688C6.29113 45.1171 6.47661 45.6979 6.30019 46.4354C6.10005 47.2672 6.20535 48.0612 6.51078 48.8605C7.1607 50.5608 7.5819 52.364 7.58817 54.2486C7.58957 55.3168 7.67255 56.4355 7.15164 57.4266C6.71162 58.2609 6.96265 59.1021 7.41244 59.7386C8.03725 60.6244 8.32873 61.666 8.64114 62.7239C8.78758 63.2242 8.75341 63.6508 8.52398 64.0936C7.83571 65.4265 7.79807 66.8571 8.0777 68.3596C8.27435 69.4158 8.66137 70.3563 9.12928 71.2455C9.4633 71.8802 9.71434 72.5364 9.80848 73.2757C9.88658 73.9044 10.0895 74.4321 10.4954 74.8501C10.6237 74.9821 10.7478 75.2056 10.7617 75.4026C10.8461 76.4494 11.049 77.4817 10.8036 78.555C10.5539 79.6455 10.7604 80.2254 11.5707 80.8182C12.1139 81.2148 12.3133 81.7784 12.3447 82.4843C12.3684 83.0291 12.3384 83.579 12.3607 84.1238C12.404 85.0858 12.6431 85.9553 13.2673 86.5994C13.5497 86.8915 13.8544 87.1897 14.254 86.9824C14.6612 86.7759 14.8272 86.327 14.8349 85.8174C14.846 85.21 14.8223 84.5958 14.7896 83.9876C14.7331 82.928 14.7644 81.9215 15.6515 81.3227L15.7672 81.1942C16.6975 80.0618 16.7944 78.8719 16.148 77.4645C15.6738 76.4289 15.4569 75.3298 15.8809 74.1511C16.0482 73.6869 16.187 73.1746 16.2163 72.6726C16.2428 72.1809 16.2065 71.6233 16.0336 71.1932C15.6982 70.3649 15.2561 69.5982 14.8398 68.8196C14.1857 67.5998 13.8161 66.356 14.5197 64.9674L14.6166 64.7044C15.2846 63.207 15.3439 61.7105 14.5887 60.2286C14.3579 59.7755 14.3279 59.3411 14.5873 58.8846C15.0692 58.0451 14.9743 57.2048 14.5978 56.3456C14.3746 55.8393 14.1808 55.3065 14.0246 54.7651C13.7247 53.7295 13.9967 53.1007 15.0001 52.663C15.3983 53.1967 15.8279 53.8006 16.2798 54.3779C16.9527 55.2328 17.7895 55.5626 18.7134 55.2388C19.4101 54.9955 19.8215 55.3502 20.1604 55.9789C20.5209 56.6497 20.8271 57.3632 21.1967 58.0228C21.4916 58.5462 21.8131 59.0628 22.1883 59.4996C22.5802 59.9622 22.8856 59.9014 23.2775 59.4371C24.0048 58.5668 24.161 58.5514 24.8556 59.4388C25.2363 59.9314 25.6471 60.2826 26.221 60.1986C26.6505 60.1335 26.9232 60.3545 27.0933 60.8162C27.4566 61.809 27.8472 62.7899 28.1812 63.7964C28.5996 65.0616 29.2913 65.4608 30.2885 64.9434C30.4322 64.8689 30.573 64.7815 30.7195 64.7095C31.2829 64.4303 31.3408 64.4157 31.6637 65.0864C32.0618 65.9131 32.4251 66.7688 32.7592 67.6383C33.2076 68.799 33.9439 69.5605 34.939 69.7747C35.5443 69.9066 35.863 70.2561 36.1064 70.86C36.2333 71.177 36.386 71.4802 36.5122 71.7963C37.0994 73.2594 37.764 74.6248 39.1363 75.1679L39.3985 75.3752C40.0749 75.95 40.713 76.5462 40.7583 77.6967C40.805 78.8402 41.1858 79.8716 41.5324 80.915C41.7695 81.6268 42.1146 82.1999 42.6732 82.5682C43.1272 82.8698 43.4368 83.3178 43.6174 83.9242C43.7903 84.4956 44.0002 85.0533 44.2199 85.5981C44.5274 86.3536 45.086 86.8239 45.4779 86.6962C45.8858 86.5643 46.1006 86.0135 46.0804 85.0687C46.0727 84.6549 45.8991 84.1941 45.9974 83.836C46.2554 82.9186 46.0385 82.05 45.9256 81.1754ZM22.1095 40.2798C21.947 40.4066 21.7413 40.4588 21.5488 40.5102C21.1227 40.6327 20.6778 40.6849 20.2643 40.8537C19.7964 41.0456 19.3327 41.2872 18.9017 41.5861C18.5705 41.8183 18.2504 42.1266 18.0119 42.4856C17.6682 43.0047 17.2637 43.3653 16.7114 43.6386C16.5238 43.445 16.3446 43.2163 16.134 43.0424C15.2101 42.2765 14.6515 42.2217 13.913 42.9027C13.7115 43.0886 13.4758 43.2137 13.0776 43.4895C13.1529 42.8839 13.1731 42.489 13.2561 42.1146C13.3321 41.7771 13.4883 41.4688 13.5901 41.139C13.9025 40.1264 13.807 39.7033 13.0546 39.1156C12.7457 38.8758 12.6285 38.6 12.6362 38.1742C12.6487 37.5318 12.6411 36.8876 12.6376 36.2434C12.6348 35.2943 12.3266 34.5842 11.6062 34.1567C11.1223 33.8689 11.0804 33.6616 11.199 33.002C11.2736 32.5994 11.3363 32.1848 11.374 31.7736C11.5065 30.385 10.9416 29.4188 10.1111 28.5956C9.96886 28.4551 9.82382 28.1887 9.8287 27.9839C9.84753 27.0006 9.58115 26.0172 9.89495 25.0295C10.093 24.4024 9.77013 23.8996 9.42355 23.4944C8.88033 22.8657 8.81617 22.1033 8.95075 21.2784C9.06163 20.5845 9.32105 20.3746 9.88729 20.4714C10.0421 20.5006 10.2046 20.504 10.3524 20.558C11.639 21.036 12.6515 20.4355 13.5476 19.3536C13.6961 19.1737 13.8523 18.9981 13.9974 18.8148C14.4897 18.1903 15.0964 17.9693 15.7839 18.0575C16.2275 18.1132 16.664 18.2434 17.1061 18.2725C17.6772 18.3111 18.249 18.2845 18.8857 18.2845C20.1346 21.0711 20.6702 21.4043 22.5927 20.5451C23.0551 21.1182 23.5746 21.6382 23.2357 22.6498C23.0809 23.1158 23.2217 23.6126 23.4916 24.0024C23.8633 24.5412 24.2343 25.0817 24.6415 25.5786C24.9176 25.9178 25.2552 26.1825 25.5718 26.4874C25.3688 26.8995 25.2719 27.1179 25.1582 27.3201C24.6945 28.1424 24.6024 28.7181 25.1066 29.4273C25.8032 30.403 25.4379 31.431 25.3974 32.4572L25.2991 32.7099C24.8026 33.3969 24.2963 34.077 23.8019 34.7658C23.3117 35.4468 23.1652 36.2974 23.053 37.1549C22.9874 37.6611 22.9644 38.1777 22.8982 38.6856C22.8103 39.3401 22.5844 39.9157 22.1095 40.2798Z" fill="#11B0C8"/>
<path d="M249.485 39.6384C249.119 39.4199 248.768 39.5227 248.424 39.7052C247.539 40.1755 246.641 40.6183 245.781 41.1494C245.225 41.4904 244.639 41.8698 244.22 42.4112C242.911 44.1099 241.025 44.7275 239.62 46.2283L239.48 46.3131C238.221 46.9358 236.987 47.6511 235.695 48.1514C234.57 48.5865 233.413 48.8487 232.655 50.1721C232.636 49.8278 232.661 49.5477 232.739 49.2898C232.97 48.5326 232.864 47.8353 232.528 47.1748C232.28 46.684 231.997 46.218 231.751 45.7255C231.632 45.4899 231.485 45.2141 231.488 44.9605C231.502 44.33 231.273 43.8717 230.986 43.3878C230.802 43.0717 230.65 42.6442 230.641 42.263C230.593 40.2748 230.6 38.2858 230.569 36.2993C230.553 35.2988 230.202 34.5209 229.487 33.9881C229.279 33.8331 229.046 33.5641 228.986 33.296C228.552 31.3532 227.599 29.61 227.528 27.5301C227.518 27.31 227.465 27.0838 227.401 26.8765C226.886 25.2275 226.391 23.5691 225.83 21.945C225.599 21.2734 225.24 20.6584 224.889 20.0622C224.755 19.8394 224.424 19.573 224.27 19.6399C224.046 19.7332 223.795 20.0862 223.751 20.3748C223.67 20.8982 223.718 21.4542 223.735 21.999C223.778 23.6617 223.833 25.3286 223.886 27.0196C223.033 27.2534 222.828 27.9516 222.876 28.7876C222.942 29.9055 223.048 31.0174 223.152 32.1293C223.21 32.7657 223.343 33.3954 223.359 34.0318C223.388 35.2842 223.371 36.54 223.353 37.7924C223.335 39.1963 223.519 40.5532 224.012 41.8193C224.42 42.8815 224.675 43.978 224.717 45.1481C224.74 45.7563 224.767 46.3679 224.752 46.9761C224.738 47.5774 224.915 48.0512 225.291 48.4024C225.553 48.6465 225.854 48.8281 226.289 49.1502C225.949 50.6673 225.634 52.222 225.248 53.7519C224.878 55.221 224.377 56.6301 224.719 58.2491C224.875 58.9798 224.636 59.2788 224.042 59.5298C223.673 59.6883 223.286 59.7893 222.921 59.9632C221.973 60.4172 221.008 60.8344 220.097 61.3869C219.312 61.864 219.266 62.4757 219.821 63.3169L219.941 63.5302L219.851 63.7101C219.675 63.8445 219.494 63.973 219.308 64.0895C218.123 64.8433 217.167 65.9278 216.322 67.1716C215.75 68.0145 215.74 68.5833 216.205 69.4434C216.747 70.4422 216.734 70.7763 216.017 71.5712C215.146 72.5417 214.253 73.4832 213.358 74.4169C212.952 74.84 212.608 75.2949 212.421 75.9279C212.358 76.1412 212.207 76.3965 212.047 76.4676C211.098 76.8908 210.504 77.7559 210.042 78.7967C209.631 79.7253 209.082 80.4808 208.314 80.97C207.898 81.2329 207.446 81.4111 207.039 81.6912C205.217 82.9427 203.721 84.7074 202.232 86.4634C201.89 86.8669 201.689 87.4742 201.49 88.0242C201.283 88.5938 201.184 89.2037 201.663 89.692C202.068 90.1023 202.55 90.104 203.123 89.6903L203.443 89.4145C204.504 88.3197 205.549 87.2018 206.627 86.1336C207.027 85.7362 207.476 85.349 207.955 85.1537C208.892 84.7699 209.861 84.4949 210.829 84.2294C211.875 83.9373 212.785 83.4122 213.543 82.4339C214.551 81.1293 215.62 79.8949 216.667 78.6348C216.833 78.4361 217.013 78.2339 217.211 78.0883C217.888 77.5863 218.383 76.8728 218.667 75.9965C219.171 74.44 220.007 73.1739 220.873 71.9258C221.262 71.3639 221.692 70.8397 222.054 70.2512C222.284 69.8785 222.495 69.4451 222.586 68.9954C222.872 67.6068 223.519 66.59 224.48 65.8156C225.814 64.738 227.122 63.6235 228.448 62.5331C229.029 62.0577 229.454 61.4349 229.769 60.6674C229.968 60.1859 230.22 59.726 230.502 59.3096C231.309 58.1112 232.343 57.3711 233.566 56.93C235.527 56.2224 236.92 54.6385 237.801 52.3933C238.033 51.8066 238.384 51.4099 238.808 51.0913C239.096 50.872 239.409 50.6955 239.726 50.5499C240.647 50.1242 241.43 49.4517 242.167 48.6593C242.598 48.1951 243.054 47.7368 243.555 47.4087C245.073 46.4236 246.412 45.1464 247.653 43.7081C248.376 42.8721 249.065 41.9881 249.738 41.0929C250.174 40.5241 250.05 39.9733 249.485 39.6384Z" fill="#11B0C8"/>
<path d="M121.986 56.9918C121.55 55.7112 121.163 54.428 121.233 52.9957C121.281 52.008 121.213 51.0127 121.243 50.0233C121.267 49.2232 121.291 48.4103 121.436 47.6359C121.694 46.2636 122.032 44.9093 122.355 43.555C122.507 42.9245 122.474 42.3257 122.14 41.8203C121.666 41.0973 121.614 40.2878 121.775 39.4518C121.975 38.4239 122.244 37.4139 122.465 36.3911C122.545 36.0253 122.636 35.6399 122.62 35.2672C122.596 34.6333 122.392 34.0457 121.88 33.787C121.334 33.5086 120.845 33.7673 120.47 34.2838C120.213 34.6385 119.944 35.0282 119.805 35.4634C119.558 36.2343 119.382 37.0456 119.22 37.8525C118.903 39.4347 118.615 41.028 118.315 42.6144L118.21 42.9768C117.595 44.1426 117.382 45.4541 117.237 46.8024C117.164 47.5014 116.863 47.9631 116.327 48.352C115.553 48.9174 114.832 49.6361 114.187 50.413C113.576 51.1471 113.086 52.0354 112.545 52.8578C112.56 52.2967 112.536 51.7271 112.616 51.1823C112.893 49.2917 113.215 47.4089 113.513 45.5183C113.661 44.5752 113.822 43.6269 113.919 42.6744C113.967 42.1775 113.961 41.6336 113.846 41.1599C113.702 40.5748 113.411 40.0326 112.826 39.988C112.269 39.9418 111.888 40.3153 111.62 40.8815C111.529 41.0751 111.45 41.2807 111.381 41.488C110.694 43.5798 110.012 45.6742 109.281 47.9083C109.037 46.5428 108.583 45.5509 107.336 45.9021C106.899 45.0104 106.791 44.0844 106.643 43.1772C106.524 42.4576 106.245 41.8597 105.837 41.3363C105.522 40.9312 105.123 40.9312 104.745 41.1025C104.359 41.2789 104.1 41.619 104.1 42.1938C104.1 42.6718 104.04 43.1481 104.012 43.6278C103.964 44.4236 103.887 45.2211 103.883 46.0169C103.881 46.8504 103.923 47.6873 104.001 48.5156C104.117 49.7543 103.501 50.5672 102.973 51.554C102.712 50.9013 102.452 50.3762 102.286 49.8065C102.174 49.4253 102.224 48.979 102.152 48.5747C102.038 47.9494 101.866 47.3412 101.751 46.7159C101.62 46.0006 101.514 45.2776 101.414 44.5589C101.366 44.2103 101.38 43.8522 101.328 43.5061C101.078 41.8383 100.69 40.2005 100.685 38.4804C100.683 37.9433 100.621 37.3899 100.508 36.87C100.38 36.2849 100.026 35.9757 99.6639 36.0776C99.2009 36.2095 98.735 36.4014 98.4854 36.9479C98.2323 37.5038 97.9966 38.0812 97.8188 38.6791C97.6312 39.3105 97.5203 39.9752 97.3801 40.6271C97.2832 41.0836 97.0754 41.3655 96.6633 41.3406C95.9095 41.2987 95.5301 41.8786 95.2616 42.6247C95.0727 43.1541 94.9388 43.7134 94.7198 44.224C94.1438 45.58 93.9988 46.9583 94.4743 48.4026C94.6368 48.8951 94.6745 49.3979 94.5225 49.9042C94.0022 51.6465 93.7533 53.5148 92.9102 55.1124C92.7435 55.4285 92.5964 55.8114 92.5713 56.1806C92.5274 56.8034 92.4088 57.576 92.6417 58.0437C93.0622 58.8746 93.1417 59.6996 93.1215 60.6041C93.1152 60.7943 93.1369 60.9931 93.1731 61.1772C93.2945 61.7674 93.6724 62.1897 94.0859 62.2172C94.542 62.2437 94.823 61.9559 94.9932 61.2312C95.1194 60.7018 95.2707 60.2135 95.6068 59.8109C95.9973 59.3389 96.0796 58.7179 95.8878 58.1097C95.733 57.612 95.8502 57.2411 96.0733 56.8616C96.2421 56.5764 96.4436 56.3091 96.5761 56.0033C96.7044 55.7018 96.8397 55.3582 96.8383 55.0344C96.8306 53.9525 97.3034 53.1825 97.8125 52.3438C97.9903 52.51 98.0963 52.6702 98.2323 52.7293C98.855 52.9923 99.0761 53.6262 99.2497 54.3115C99.4945 55.2923 99.6841 56.2997 99.9896 57.2505C100.408 58.5603 100.911 59.8289 101.385 61.113L101.578 61.4145C101.837 61.752 102.142 61.8437 102.506 61.692C102.985 61.4976 103.272 61.0976 103.275 60.4919C103.278 59.2113 103.243 57.9281 103.215 56.6457C103.199 55.9288 103.16 55.2092 103.129 54.3808C103.68 54.7415 103.897 55.1518 103.85 55.7694C103.828 56.0547 103.869 56.3519 103.833 56.6337C103.691 57.7422 104.278 58.3504 104.868 58.95C105.095 59.1787 105.376 59.1822 105.591 58.9363C106.15 58.2964 106.698 57.6403 106.591 56.5609C106.561 56.2817 106.554 55.9759 106.611 55.706C106.828 54.6687 106.748 53.6716 106.419 52.6933C106.31 52.3704 106.261 52.0629 106.425 51.6697C106.805 52.0954 107.202 52.3961 107.435 52.8312C107.983 53.8438 108.466 54.9102 108.945 55.9759C109.323 56.8171 109.643 57.6959 110.009 58.5449C110.201 58.9886 110.485 59.3389 110.938 59.2867C111.397 59.2336 111.704 58.9303 111.832 58.359C111.912 58.0009 112.029 57.6557 112.145 57.2505L112.247 57.3884L112.278 57.672C112.341 58.9843 112.921 59.7921 113.899 60.2349C114.241 60.3883 114.575 60.5716 114.89 60.7883C116.171 61.6681 117.62 61.3408 118.534 59.9463C118.677 59.7278 118.813 59.5026 119.016 59.1788C119.102 59.6653 119.17 60.0354 119.228 60.4063C119.378 61.3203 119.742 62.0895 120.285 62.7243C120.797 63.3222 121.495 63.3667 122.082 62.8776C122.598 62.4459 122.871 61.8908 122.817 61.0907C122.718 59.6627 122.431 58.305 121.986 56.9918ZM97.0412 48.4051C97.4952 46.9197 97.9234 45.5277 98.3494 44.1332L98.5524 44.1966C98.5524 44.929 98.4666 45.6802 98.5761 46.3887C98.6793 47.0405 98.9931 47.6453 99.2602 48.406H97.0412V48.4051ZM117.461 55.6726C117.198 55.9408 117 56.3074 116.749 56.6029C116.322 57.1135 115.786 57.0226 115.702 56.3493C115.622 55.7266 115.76 55.0533 115.844 54.41C115.927 53.7812 116.139 53.3306 116.705 53.0531C117.209 52.7995 117.606 52.2265 118.189 51.6662C118.32 53.2167 118.526 54.5847 117.461 55.6726Z" fill="#11B0C8"/>
<path d="M85.0386 27.3232C84.478 27.438 83.8915 27.4954 83.3713 27.7523C82.7465 28.059 82.1272 28.4676 81.5966 28.9739C80.0087 30.4884 78.4578 32.0645 76.9042 33.6347C76.5186 34.0262 76.1831 34.5076 75.626 34.4416C75.1448 34.3868 74.7564 34.619 74.4008 34.9693C73.8296 35.5287 73.2766 36.124 72.6993 36.6757C72.4336 36.9284 72.147 37.1665 71.8394 37.3319C71.3227 37.612 70.783 37.8287 70.246 38.0737C69.8855 37.2933 69.8555 36.4787 70.2084 35.6323C70.352 35.2914 70.4734 34.9213 70.5236 34.547C70.6714 33.4462 70.8736 32.3498 70.3485 31.2713C70.1909 30.9492 70.2439 30.4678 70.216 30.0558C70.1784 29.5152 70.2767 28.8976 70.1003 28.4453C69.8039 27.6924 69.9127 27.0345 70.108 26.3304C70.1826 26.0562 70.2642 25.7838 70.3248 25.5063C70.5954 24.2805 70.6826 23.0384 70.4762 21.786C70.2502 20.3975 69.2774 19.964 68.3535 20.8249C68.1868 20.9791 68.0208 21.1316 67.8695 21.2721C66.9421 20.9842 66.7642 21.0151 66.357 21.7586C66.1743 22.0927 66.0397 22.5107 66.0013 22.9073C65.9497 23.4761 66.0202 24.062 66.0104 24.6403C65.9839 26.4349 66.1101 28.2663 65.8654 30.0147C65.5474 32.2812 65.1283 34.5479 64.4414 36.7168C64.2357 37.367 64.1729 38.0857 64.0453 38.7718C63.9254 39.4263 63.8375 40.091 63.6785 40.73C63.4303 41.7383 63.1123 42.7217 62.8654 43.7342C62.7797 44.0914 62.7748 44.5026 62.8124 44.8795C62.8752 45.5005 63.1757 45.946 63.6632 46.1447C64.1018 46.3254 64.4219 46.0453 64.689 45.6521C65.0042 45.1827 65.3103 44.703 65.6332 44.237C65.7719 44.0374 65.9379 43.867 66.092 43.6828L66.2775 43.8113C66.168 44.3561 66.0515 44.9026 65.9497 45.4534C65.873 45.856 65.7705 46.2638 65.7657 46.6706C65.7496 48.1663 65.5781 49.5917 64.9275 50.9083C64.6555 51.4617 64.5014 52.2129 64.9637 52.6952C65.4679 53.2246 65.4086 53.802 65.3166 54.435C65.0272 56.4266 64.7343 58.4148 64.4282 60.4022C64.3752 60.7474 64.2894 61.0926 64.1673 61.4087C63.7462 62.4966 63.6025 63.6642 63.3898 64.824C63.1639 66.0704 63.6353 66.8602 64.2357 67.6448C64.5997 68.1228 64.9644 68.1716 65.3312 67.7057C65.6875 67.2551 66.0557 66.7257 66.2057 66.1492C66.5146 64.9534 66.8472 63.7789 67.2838 62.6456C67.3932 62.3578 67.4539 62.0357 67.5083 61.7256C67.7224 60.5007 67.9239 59.2732 68.131 58.0473C68.3263 56.8875 68.5229 55.7293 68.7461 54.4196C69.5794 54.8984 69.9824 54.2277 70.4162 53.5912C70.5131 53.4456 70.6972 53.3908 70.8848 53.2649C71.0598 53.8362 71.1484 54.3596 71.3701 54.7785C71.5919 55.194 71.951 55.5032 72.2425 55.8664L72.4217 56.1799C73.0807 57.6781 73.8094 59.1549 73.9063 60.9076C73.967 61.9963 74.4091 62.7758 75.0632 63.42C75.8373 64.1815 76.2759 65.2095 76.4698 66.3479C76.7382 67.9087 77.3784 69.215 78.1399 70.4374C78.4788 70.9822 78.6392 71.5321 78.6984 72.1883C78.7472 72.7254 78.7856 73.3045 78.9795 73.7722C79.3037 74.5568 79.552 75.3329 79.605 76.223C79.6426 76.8731 80.0603 77.2603 80.5568 77.2697C81.1098 77.2783 81.3797 76.9956 81.5143 76.2572C81.5373 76.1339 81.5408 76.0037 81.5575 75.8118C82.3427 75.8281 82.7318 75.5719 82.8315 74.8318C82.9689 73.8184 83.0582 72.7914 82.7346 71.7883C82.5798 71.3103 82.4536 70.8203 82.3225 70.3312C81.5547 67.4624 80.8162 64.5927 80.6886 61.5312C80.6559 60.8082 80.3372 60.0492 80.0108 59.4136C79.4564 58.3403 79.038 57.2533 78.8728 55.9735C78.6482 54.244 78.0722 53.6358 76.6685 53.3488C76.1413 53.24 75.6636 53.0404 75.331 52.4605C74.5772 51.1482 73.8017 49.8538 73.0396 48.5518C72.9315 48.3676 72.8492 48.1663 72.755 47.9727C72.5005 47.4545 72.2634 46.9234 71.9915 46.4205C71.4419 45.3986 71.7467 44.1959 72.6895 43.7513C73.2759 43.4772 73.8666 43.2202 74.4517 42.9444C76.119 42.1597 77.2752 40.8294 77.7082 38.6108C77.9606 37.3241 78.5025 36.2328 79.5952 35.7265C79.8149 35.6246 80.0108 35.449 80.2242 35.3299C81.3155 34.7098 82.1007 33.7127 82.6112 32.3883C82.8092 31.8761 83.1328 31.5446 83.4794 31.1839C84.2164 30.419 84.8956 29.5692 85.579 28.7297C85.7848 28.4779 85.9179 28.1524 85.7527 27.7686C85.5993 27.4148 85.351 27.2572 85.0386 27.3232Z" fill="#11B0C8"/>
<path d="M201.975 69.0562C202.234 68.6151 202.318 68.0977 202.191 67.5871C201.988 66.7622 201.758 65.9424 201.485 65.1458C201.036 63.8557 200.781 62.5742 200.966 61.1274C201.254 58.8488 200.843 56.6833 199.712 54.8313C199.229 54.0398 199.053 53.2894 199.159 52.348C199.226 51.7509 199.222 51.135 198.934 50.5731C198.278 49.2941 197.649 47.9981 196.516 47.2254C196.12 46.9573 196.134 46.38 196.524 46.0604C196.763 45.866 197.047 45.7649 197.298 45.5919C197.752 45.2835 198.23 45.0034 198.639 44.6162C199.148 44.1331 199.688 43.7938 200.321 43.6456C200.567 43.5883 200.802 43.4289 201.028 43.2799C201.793 42.7736 202.293 41.9624 202.73 41.0672C202.985 40.5456 203.076 39.999 203.023 39.4063C202.989 39.0234 202.984 38.6276 202.899 38.2618C202.777 37.7479 202.689 37.1474 202.413 36.7799C201.892 36.08 201.556 35.2577 201.145 34.4842C200.895 34.0104 200.803 33.6447 201.073 33.0973C201.47 32.2955 201.315 31.5802 200.759 30.9361C200.144 30.2302 199.44 29.9115 198.6 30.1454C197.899 30.339 197.25 30.136 196.63 29.7488C195.657 29.1389 195.033 29.198 194.319 30.1874C193.593 31.1939 192.952 32.2972 192.278 33.3594C192.172 33.5256 192.075 33.7029 191.952 33.9137C191.544 33.4536 191.577 32.8994 191.524 32.37C191.405 31.193 191.309 30.0092 191.116 28.8511C191.003 28.1632 190.625 27.8634 190.186 27.86C189.708 27.8523 189.264 28.2737 189.119 28.9376C189.059 29.2023 189.084 29.4978 189.076 29.7796C189.052 30.6097 189.066 31.444 188.997 32.2698C188.864 33.8631 188.58 35.4478 188.547 37.0429C188.513 38.7938 188.303 40.4865 188.001 42.1877C187.899 42.7642 187.953 43.3921 187.983 43.9934C188.022 44.7678 188.398 45.2724 188.94 45.6381C189.614 46.0904 189.775 46.6532 189.487 47.5518C189.325 48.0598 189.104 48.5369 188.943 49.0466C188.667 49.9212 188.621 50.8224 189.004 51.6593C189.418 52.5664 189.43 53.4359 189.197 54.4296C189.015 55.2116 188.94 56.0914 189.026 56.8949C189.136 57.9305 189.144 58.9396 189.043 59.9616C189 60.3753 188.96 60.8028 189.003 61.2096C189.039 61.5335 189.149 61.9027 189.326 62.1391C189.993 63.0214 191.061 62.8115 191.44 61.6671C191.659 61.0023 191.747 60.2348 191.757 59.5136C191.773 58.3948 191.957 57.3737 192.33 56.3501C192.602 55.6057 192.699 54.7551 192.826 53.9413C192.9 53.4504 192.879 52.9399 192.896 52.5776C193.082 52.7463 193.313 52.9425 193.536 53.1523C194.595 54.1477 195.358 55.4386 196.009 56.8478C196.253 57.3746 196.537 57.9023 196.887 58.322C197.636 59.2206 197.922 60.2759 197.871 61.5386C197.848 62.1399 197.851 62.7944 198.02 63.3418C198.345 64.4014 198.563 65.479 198.738 66.5875C198.899 67.6026 199.225 68.5611 199.862 69.2927C200.533 70.0653 201.445 69.96 201.975 69.0562ZM195.897 41.1512C195.695 41.6155 195.365 41.9932 195.063 42.4498C194.878 42.2905 194.713 42.2194 194.646 42.078C194.342 41.4373 193.982 40.8762 193.509 40.3982C193.336 40.2243 193.333 39.8003 193.236 39.4285C194.049 39.1964 194.498 38.667 194.773 37.8275C195.24 36.4107 195.501 36.2642 197.064 36.4467C195.915 37.3992 195.923 38.5368 196.17 39.8123C196.249 40.2158 196.071 40.7511 195.897 41.1512Z" fill="#11B0C8"/>
<path d="M202.208 45.9598C201.608 46.1534 201.356 46.6648 201.475 47.398C201.612 48.2495 202.033 48.7309 202.734 48.6547C203.345 48.587 203.844 48.8551 204.383 49.107C205.197 49.4865 205.818 50.4219 206.835 50.2703C206.77 50.5178 206.755 50.684 206.691 50.8151C206.282 51.6717 206.13 52.59 206.105 53.5785C206.093 54.0274 205.914 54.5045 205.721 54.9054C205.464 55.4468 205.381 55.9873 205.514 56.5655C205.618 57.0272 205.738 57.4975 205.929 57.9112C206.155 58.4038 206.168 58.8073 205.972 59.3401C205.555 60.4905 205.443 61.6872 205.959 62.8702C206.042 63.0621 206.108 63.2993 206.1 63.5109C206.042 64.8875 206.133 66.3189 205.851 67.6244C205.455 69.4378 205.421 71.2393 205.455 73.0656C205.471 73.9025 205.611 74.7377 206.036 75.4281C206.443 76.0877 206.95 76.032 207.29 75.3211C207.367 75.1574 207.41 74.9664 207.457 74.7814C207.685 73.8657 207.912 72.9465 208.133 72.0222C208.249 71.5314 208.399 71.0423 208.449 70.5403C208.659 68.3773 208.858 66.2101 209.019 64.042C209.108 62.8376 209.264 61.6872 209.853 60.6781C209.984 60.4502 210.103 60.1624 210.121 59.8917C210.177 58.9674 210.281 58.0295 209.997 57.1249C209.866 56.7111 209.882 56.3162 210.061 55.9256C210.599 54.7503 210.65 53.492 210.519 52.1882C210.458 51.5937 210.466 50.9864 210.442 50.3859L210.633 50.2154C210.904 50.3713 211.228 50.4544 211.438 50.6934C212.335 51.7085 213.429 51.8122 214.523 51.6049C215.128 51.4875 215.582 51.6031 216.046 52.0323C216.645 52.59 217.334 52.8778 218.088 52.9138C219.148 52.96 219.553 52.5129 219.601 51.2536C219.815 51.0635 220.041 50.8973 220.238 50.6874C220.776 50.1101 220.827 49.3974 220.322 48.7626C220.076 48.4499 219.753 48.181 219.421 48.0285C218.986 47.8272 218.514 47.7175 218.051 47.643C217.718 47.5899 217.469 47.4511 217.249 47.135C216.82 46.5114 216.247 46.2279 215.586 46.2142C215.092 46.2048 214.595 46.2125 214.09 46.2125C213.423 45.0852 213.219 45.0046 211.978 45.2077C211.445 45.2916 210.899 45.4569 210.277 45.1229C210.404 44.6277 210.487 44.1232 210.659 43.6743C211.173 42.3252 211.521 40.9109 211.737 39.4581C211.972 37.8759 212.221 36.3092 212.83 34.8632L212.876 34.679C213.012 33.5689 213.038 32.5007 212.263 31.6629C211.644 30.9973 211.63 30.8234 212.042 29.9522C212.461 29.0622 212.919 28.1979 213.3 27.2847C213.521 26.7536 213.713 26.1609 213.763 25.5758C213.86 24.4005 213.204 23.7272 212.242 23.9157C211.383 24.0844 210.867 24.7637 210.525 25.6974C210.28 26.3664 210.014 27.0243 209.754 27.6891C209.086 29.392 208.382 31.0735 208.185 32.9975C208.114 33.6862 207.899 34.3552 207.71 35.0182C207.418 36.0565 207.179 37.1067 207.196 38.2134C207.205 38.9689 207.07 39.6705 206.798 40.3498C206.429 41.2707 206.33 42.2292 206.496 43.2554C206.682 44.4059 206.391 44.8145 205.458 44.8196C204.95 44.8222 204.461 44.8787 204.054 45.2993C203.697 45.6694 203.282 45.8073 202.826 45.8407C202.62 45.8544 202.409 45.8947 202.208 45.9598Z" fill="#11B0C8"/>
<path d="M60.1926 54.0533C59.2575 54.8799 58.6473 54.8885 57.6997 54.0738C57.4207 53.8348 57.1564 53.5684 56.874 53.338C56.3796 52.9311 55.8608 52.7966 55.3538 53.3037C55.0463 53.6096 54.7339 53.601 54.4061 53.3937C53.8552 53.0425 53.3399 53.177 52.849 53.5599C52.4724 53.8494 52.1231 54.1946 51.7409 54.4679C51.2137 54.8396 50.7242 54.4962 50.7172 53.7526C50.7138 53.5025 50.7549 53.2344 50.8372 53.0065C51.0059 52.5388 51.2054 52.0882 51.4104 51.6428C51.6677 51.0868 51.9941 50.5669 52.2005 49.9835C52.6733 48.642 52.5003 47.9782 51.5464 47.2012C51.439 47.113 51.3295 47.029 51.1559 46.8911C51.2918 45.6482 51.9411 44.9175 52.6279 44.2099C53.5491 43.2625 54.4794 42.3271 55.3657 41.3317C55.8622 40.7741 56.1913 40.0759 55.8455 39.2056C56.3406 38.8218 56.8384 38.6762 57.3733 38.6822C57.8182 38.6865 58.2631 38.6882 58.708 38.6668C59.8321 38.6137 60.8126 38.1742 61.5022 37.0204C61.7944 36.5295 61.9297 35.9693 61.6835 35.392C61.459 34.8609 61.072 34.6193 60.5817 34.6458C59.7212 34.6912 58.86 34.7075 58.003 34.8009C57.6139 34.8446 57.3008 34.8489 57.0246 34.4402C56.7213 33.994 56.3001 33.8458 55.8238 33.8826C54.6418 33.9768 53.5742 34.4634 52.6705 35.3954C52.3915 35.6832 52.1147 36.1526 52.0694 36.5766C51.9585 37.6466 51.4808 38.1451 50.6768 38.3233L50.3037 38.4646C48.7396 39.0154 48.2229 39.7958 48.0095 41.7514C47.9223 42.5687 47.8331 43.4484 47.5269 44.1543C47.0897 45.1514 46.8603 46.1579 46.8108 47.2638C46.7794 47.9953 46.5486 48.6258 46.1427 49.1697C45.8603 49.5475 45.5402 49.9141 45.3533 50.3613C45.1065 50.9463 44.8945 51.5888 44.808 52.2364C44.6985 53.0433 45.1281 53.571 45.7899 53.6327C45.9084 53.6438 46.027 53.6344 46.2208 53.6344C46.0507 53.9933 45.8805 54.246 45.7996 54.5398C45.642 55.1086 45.4579 55.6928 45.4175 56.2805C45.3533 57.2005 45.709 57.6305 46.4726 57.7033C46.8373 57.7401 47.2048 57.7196 47.5716 57.7281C48.3337 57.7513 48.5722 58.0605 48.4244 58.9762C48.2898 59.8217 48.4272 60.5507 48.9976 61.0295C49.5234 61.4758 49.6315 62.0592 49.644 62.7625C49.6517 63.2088 49.6894 63.6662 49.7905 64.0936C49.8672 64.4157 50.0262 64.7387 50.2138 64.9871C50.5352 65.4205 50.985 65.4685 51.3302 65.0762C51.628 64.7335 51.8936 64.3146 52.0889 63.8735C52.3867 63.1985 52.5854 62.4549 52.8769 61.7765C53.1077 61.2437 53.3776 60.722 53.6949 60.2629C53.971 59.862 54.3162 59.6778 54.8078 59.9065C55.1077 60.0461 55.5337 59.9545 55.8538 59.8046C56.2367 59.6264 56.6 59.3249 56.9061 58.9882C57.4382 58.3963 58.0051 58.2327 58.7087 58.3766C60.3244 58.7064 61.8104 57.3949 62.0692 55.4119C62.1236 55.0033 62.0538 54.4901 61.8837 54.1389C61.519 53.3911 60.9339 53.398 60.1926 54.0533Z" fill="#11B0C8"/>
<path d="M185.239 48.7786C184.666 47.9297 184.525 47.1168 184.91 46.1265C185.156 45.4901 185.409 44.8433 185.56 44.1683C185.937 42.5116 185.909 40.8781 185.23 39.3113C185.089 38.9841 185.021 38.5866 184.99 38.2131C184.919 37.4174 184.697 36.7552 184.216 36.1753C183.366 35.1473 182.452 34.2899 181.311 33.7973C179.741 33.1223 178.283 33.3467 177.068 34.7216C176.288 35.6056 175.686 36.7235 174.991 37.7223C174.776 38.0307 174.542 38.3476 174.267 38.5618C173.051 39.5109 172.103 40.7016 171.866 42.5271C171.726 43.5952 171.421 44.5213 170.832 45.3744C170.077 46.4709 170.016 48.1199 170.666 49.1427C171.523 50.4936 171.678 51.9858 171.503 53.6048C171.434 54.2387 171.401 54.8794 171.342 55.6529C171.408 56.2277 171.429 56.943 171.587 57.6103C171.769 58.3847 172.272 58.7916 172.829 58.6168C173.48 58.4095 173.933 58.7796 174.424 59.1582C174.816 59.4615 175.222 59.745 175.647 59.9703C175.897 60.1048 176.072 60.247 176.204 60.5631C176.624 61.5739 177.139 61.9105 178.067 61.6904C178.779 61.5199 179.458 61.1841 180.207 61.3563C180.373 61.3948 180.585 61.316 180.735 61.2072C181.497 60.6521 182.368 60.2213 182.974 59.4717C184.054 58.1346 185.041 56.6586 185.937 55.1244C186.472 54.2087 186.867 53.1268 186.618 51.8684C186.38 50.676 185.847 49.6866 185.239 48.7786ZM179.524 52.0423C179.911 53.0257 179.887 53.042 179.809 54.01C179.325 54.0673 178.818 54.1273 178.367 54.177C177.991 53.46 177.659 52.8176 177.32 52.1811C177.033 51.6483 176.677 51.2294 176.115 51.2628C175.703 51.2851 175.561 50.987 175.493 50.5724C175.422 50.1321 175.363 49.6883 175.29 49.2489C175.082 48.0162 175.318 46.936 176.086 46.1C176.837 45.2828 177.138 44.3456 176.968 43.1027C176.834 42.121 177.399 41.5359 178.078 41.1273C177.961 41.745 177.832 42.3609 177.735 42.9819C177.532 44.2446 177.959 45.168 178.789 45.8619C178.984 46.0246 179.198 46.1497 179.391 46.315C179.889 46.7364 179.99 47.0928 179.8 47.8004C179.711 48.1344 179.583 48.4548 179.474 48.7829C179.108 49.8777 179.093 50.9536 179.524 52.0423Z" fill="#11B0C8"/>
<path d="M41.5289 43.4535C41.4996 42.2456 41.6683 41.0918 42.0163 39.9653C42.2743 39.1327 42.4082 38.253 42.0804 37.4306C41.7164 36.5175 41.6321 35.6052 41.7778 34.6312V34.2457C41.7367 33.5073 41.4529 33.1467 40.849 33.0773C40.3106 33.0199 39.8155 33.1698 39.3594 33.5433C39.2004 33.6752 38.9899 33.8003 38.8086 33.7866C37.8581 33.7155 37.5038 34.0393 37.6238 35.1649C37.7521 36.3838 37.6335 37.5274 37.287 38.6581C37.2319 38.8363 37.2179 39.0325 37.1852 39.2218C37.0666 39.9139 37.144 40.505 37.736 40.8322C38.1126 41.0412 38.1998 41.4516 38.1356 41.879C38.075 42.2825 37.939 42.6714 37.8141 43.0543C37.6022 43.7104 37.34 44.3426 37.1573 45.0082C36.8588 46.103 36.9516 47.1078 37.7535 47.8676C38.0673 48.1648 38.2298 48.5537 38.2123 49.0326C38.1782 49.992 38.1761 50.9565 38.0687 51.904C37.9969 52.5524 37.8985 53.1829 38.1328 53.7911C38.3462 54.3436 38.3811 54.9055 38.2716 55.4803C38.1391 56.1862 38.259 56.8184 38.5777 57.4043C38.8664 57.932 38.971 58.5127 38.9571 59.1406C38.948 59.718 38.9557 60.2979 38.9557 60.8761H38.9341C38.9341 61.5511 38.9173 62.2279 38.9389 62.9029C38.9654 63.7192 39.1133 64.5013 39.5944 65.1138C40.1265 65.7888 40.7625 65.7091 41.1697 64.9236C41.2771 64.7086 41.3775 64.4576 41.3992 64.2118C41.4696 63.4511 41.5756 62.6759 41.5302 61.9186C41.4256 60.0846 41.5756 58.3286 42.2966 56.6839C42.42 56.408 42.4577 56.0765 42.5498 55.7741C42.9417 54.52 42.8196 53.3182 42.3127 52.1541L42.2394 51.9828C41.9835 51.3583 41.9926 50.7595 42.305 50.1539C42.556 49.6673 42.745 49.1277 43.0093 48.6505C43.6069 47.5781 43.5225 46.1903 42.358 45.3517C41.7102 44.8917 41.5484 44.2664 41.5289 43.4535Z" fill="#11B0C8"/>
<path d="M38.5186 29.6011C39.1309 30.2145 39.8436 30.4372 40.5758 30.1108C41.331 29.775 41.695 28.9964 41.7543 28.0173C41.8338 26.7024 41.9865 25.4131 42.2445 24.1274C42.5206 22.7431 41.8345 21.8856 40.5758 22.0998C40.6427 21.6363 40.7111 21.268 40.7459 20.8937C40.8554 19.7861 40.1902 18.7538 39.4001 18.8652C38.7976 18.95 38.2369 19.2215 37.8095 19.8049C37.3318 20.4568 37.1651 21.4753 37.557 22.2077C37.9085 22.8553 37.8053 23.3753 37.5382 23.9835C37.2648 24.6028 37.0061 25.2453 36.8388 25.9126C36.6156 26.8197 36.7091 27.7054 37.3241 28.3847C37.7104 28.8079 38.1191 29.2002 38.5186 29.6011Z" fill="#11B0C8"/>
<path d="M216.854 80.6538V80.8388H216.422V82.2223H216.247V80.8388H215.813V80.6538" fill="#11B0C8"/>
<path d="M216.974 80.6538H217.22L217.59 81.979L217.957 80.6538H218.202V82.2223H218.04V81.3048L218.041 81.1352V80.8997L217.674 82.2223H217.504L217.128 80.8997V80.9459L217.137 81.1224V82.2223H216.974" fill="#11B0C8"/>
</svg>
